<?xml version="1.0" encoding="UTF-8"?>
<svg version="1.1" xmlns="http://www.w3.org/2000/svg" width="1217" height="1219">
<path d="M0 0 C0.78761719 0.72445312 1.57523438 1.44890625 2.38671875 2.1953125 C4.49539527 4.13102603 6.64286328 6.00819976 8.8125 7.875 C15.30610756 13.56340022 20.90028833 19.63978377 26.30859375 26.375 C27.79995378 28.2259966 29.31161746 30.06090849 30.84765625 31.875 C50.03833605 54.61950939 63.70139222 81.98398365 72.625 110.25 C73.03129639 111.53535645 73.03129639 111.53535645 73.44580078 112.84667969 C79.56713775 132.64948217 83.09146091 153.51156759 83.625 174.25 C83.64546387 174.9006543 83.66592773 175.55130859 83.68701172 176.22167969 C85.18334294 228.9766301 69.42428737 282.8585924 37.625 325.25 C37.17801758 325.85102539 36.73103516 326.45205078 36.27050781 327.07128906 C29.60102348 335.97833977 22.33451119 344.233846 14.625 352.25 C14.15562012 352.74129395 13.68624023 353.23258789 13.20263672 353.73876953 C6.75048575 360.46211423 0.00216445 366.56042219 -7.375 372.25 C-7.9210791 372.67249023 -8.4671582 373.09498047 -9.02978516 373.53027344 C-19.02110395 381.20813783 -29.49033279 387.91373841 -40.375 394.25 C-41.29369873 394.79285645 -41.29369873 394.79285645 -42.23095703 395.34667969 C-68.42798035 410.69621115 -98.48981388 419.04271678 -128.375 423.25 C-129.07334961 423.35094971 -129.77169922 423.45189941 -130.49121094 423.5559082 C-137.83602296 424.50021663 -145.22913565 424.62484449 -152.625 424.6875 C-153.38823578 424.69433807 -154.15147156 424.70117615 -154.93783569 424.70822144 C-174.53938567 424.79198556 -193.9876839 422.58945577 -213.44824219 420.47241211 C-296.13483827 411.52521131 -371.88328174 430.81700348 -437.375 483.25 C-453.42130579 496.22342293 -469.32524911 510.29636423 -482.17578125 526.4921875 C-484.45036417 529.3445064 -486.81369993 532.10493759 -489.1875 534.875 C-530.39132795 584.52275572 -556.24381374 653.60222607 -551.109375 718.61328125 C-551.01140625 719.60714844 -550.9134375 720.60101562 -550.8125 721.625 C-547.20137511 762.44641181 -560.95150655 806.25737629 -587.06884766 837.71484375 C-591.02551525 842.36522241 -595.16486094 846.82935398 -599.375 851.25 C-600.37273437 852.32701172 -600.37273437 852.32701172 -601.390625 853.42578125 C-628.07425579 881.39874714 -669.95258109 898.47348197 -708.3125 899.48828125 C-756.00645622 900.14381731 -798.52809454 886.16870692 -833.57421875 853.01953125 C-865.39295369 821.55581707 -883.55354376 779.89899026 -884.40625 735.0390625 C-884.52905914 689.55362561 -867.49293178 649.76262846 -837.375 616.25 C-836.77300781 615.57453125 -836.17101562 614.8990625 -835.55078125 614.203125 C-829.83993617 608.16142492 -823.02701265 603.20037537 -816.375 598.25 C-815.80281738 597.82283691 -815.23063477 597.39567383 -814.64111328 596.95556641 C-781.91653907 572.91743476 -744.08532075 565.92921911 -704.36474609 566.36694336 C-672.66492873 566.74074242 -672.66492873 566.74074242 -641.375 562.25 C-639.65120117 561.8799585 -639.65120117 561.8799585 -637.89257812 561.50244141 C-595.07567076 552.11246536 -555.84241755 533.2890948 -521.375 506.25 C-520.02921875 505.19425781 -520.02921875 505.19425781 -518.65625 504.1171875 C-502.39543234 491.08049748 -486.26052874 476.26692562 -473.3984375 459.83203125 C-471.19785753 457.02395527 -468.88537361 454.33257665 -466.5625 451.625 C-429.95957864 407.6109771 -406.54070174 351.22381823 -401.375 294.25 C-401.27783691 293.18378418 -401.18067383 292.11756836 -401.08056641 291.01904297 C-400.12782085 278.55686506 -400.29665225 266.09037176 -400.35723877 253.59954834 C-400.38759753 246.80596745 -400.39568377 240.01239256 -400.3984375 233.21875 C-400.39889635 232.19761423 -400.39889635 232.19761423 -400.39936447 231.15584946 C-400.41385301 153.86698116 -393.44504088 82.29569602 -339.375 22.25 C-338.66029541 21.4448999 -338.66029541 21.4448999 -337.93115234 20.62353516 C-325.97541652 7.17874887 -312.88179453 -4.14664014 -298.375 -14.75 C-297.78444824 -15.18666992 -297.19389648 -15.62333984 -296.58544922 -16.07324219 C-217.75713033 -73.74803773 -103.66534364 -72.29953158 0 0 Z " fill="#00FFAA" transform="translate(884.375,58.75)"/>
<path d="M0 0 C18.33675274 15.92692116 27.74339 34.86547272 35.0625 57.5625 C38.25615894 67.45388565 42.07336023 76.48995908 47.125 85.5625 C47.71152344 86.63628906 48.29804687 87.71007812 48.90234375 88.81640625 C74.57222109 134.3935354 119.7270596 162.58732322 169.125 176.5625 C209.35491176 187.161494 248.46350353 182.31853826 287.12918091 168.43243408 C291.40678378 166.89737771 295.6947141 165.39221218 299.9823761 163.88552856 C302.10510384 163.13956045 304.22741551 162.39240717 306.34928894 161.64401245 C352.37851014 145.41824512 397.53964132 138.09030928 443.4296875 159.64501953 C459.60813402 167.49536201 473.21688734 177.11224673 486.125 189.5625 C487.49591797 190.82126953 487.49591797 190.82126953 488.89453125 192.10546875 C516.26409706 217.98713256 530.97496385 256.49951746 532.34375 293.703125 C533.34699857 336.20300588 518.2191929 375.88082459 488.94921875 406.6640625 C463.82968641 432.58887458 428.12826849 451.0595567 391.58666992 452.72363281 C357.82793496 453.10356492 357.82793496 453.10356492 344.125 449.5625 C342.94671631 449.26448486 342.94671631 449.26448486 341.74462891 448.96044922 C302.23649726 438.6851023 267.58040192 414.2678453 246.37109375 379.078125 C235.04448697 359.63820697 229.6100466 339.05617737 224.37109375 317.328125 C214.95557956 278.33793525 198.03496449 241.50599367 166.125 215.5625 C165.63402832 215.15918457 165.14305664 214.75586914 164.63720703 214.34033203 C123.45343262 180.64227805 73.40932237 162.94998118 20.08691406 166.78076172 C14.36228498 167.36893686 8.74723731 168.34532695 3.125 169.5625 C1.95783447 169.81193359 1.95783447 169.81193359 0.76708984 170.06640625 C-9.42757282 172.32491613 -18.89008342 175.65505233 -28.51318359 179.67480469 C-39.42245048 184.15160967 -51.04822019 187.11288688 -62.875 187.5625 C-63.76832031 187.60246094 -64.66164063 187.64242187 -65.58203125 187.68359375 C-95.86967869 188.37287087 -122.01152075 177.16604994 -143.875 156.5625 C-144.49117187 156.01078125 -145.10734375 155.4590625 -145.7421875 154.890625 C-164.34643306 137.5723872 -173.90895063 110.4039658 -175.09375 85.546875 C-175.90716897 59.06762268 -167.64927821 32.47659423 -149.875 12.5625 C-149.20082031 11.74652344 -148.52664063 10.93054688 -147.83203125 10.08984375 C-133.71211625 -6.55056609 -113.87826204 -17.21519055 -92.875 -22.4375 C-91.48087891 -22.80294922 -91.48087891 -22.80294922 -90.05859375 -23.17578125 C-58.48398951 -29.93191927 -24.50476663 -20.47801028 0 0 Z " fill="#00FFAA" transform="translate(684.875,574.4375)"/>
<path d="M0 0 C3.83904406 2.80659636 7.4015072 5.89432404 11 9 C82.15183673 68.04890511 168.84727462 106.97559057 307 127 C307.73105957 127.05784668 308.46211914 127.11569336 309.21533203 127.17529297 C387.36996464 133.20646109 467.82618902 119.23858476 604.4296875 58.58984375 C613.7749923 53.55521671 622.04149083 51.64000415 632.5234375 54.15234375 C641.57893202 57.25177957 648.80229139 63.01259902 653.31640625 71.46484375 C657.28390447 80.87901199 657.56467924 90.79265886 654 100.375 C650.10787529 109.75393939 641.79056644 115.21560881 633.1875 119.875 C632.26372559 120.38691895 631.33995117 120.89883789 630.38818359 121.42626953 C627.59938924 122.96456907 624.80015511 124.48250967 622 126 C620.49833589 126.83268079 618.99700952 127.66597107 617.49609375 128.5 C556.93304981 161.69137635 487.98478703 182.08456597 419.6875 190.875 C418.93816193 190.97259613 418.18882385 191.07019226 417.41677856 191.17074585 C393.0426939 194.2938848 368.68538504 195.38467116 344.125 195.3125 C342.7810568 195.31027394 341.43711352 195.30809761 340.09317017 195.30596924 C318.60886359 195.2589287 297.33089411 194.66490234 276 192 C275.21633057 191.90289734 274.43266113 191.80579468 273.62524414 191.70574951 C191.53556634 181.41495093 113.12579824 154.82480373 12 94 C11.34451172 93.54737793 10.68902344 93.09475586 10.01367188 92.62841797 C-4.7971337 82.39845212 -19.25619895 71.63268427 -33 60 C-34.32644531 58.89398437 -34.32644531 58.89398437 -35.6796875 57.765625 C-44.2797443 50.36498265 -50.17278015 43.12949902 -51.21484375 31.62890625 C-51.6076799 21.5565873 -48.79787802 13.43918727 -42 6 C-31.26327522 -5.36829683 -13.59533634 -8.26471023 0 0 Z " fill="#000000" transform="translate(284,1024)"/>
<path d="M0 0 C8.58758028 5.2108514 13.44287257 12.08826415 16.3359375 21.5546875 C18.3469645 31.57292292 16.57400229 40.19837547 11.4765625 48.859375 C5.43211848 57.76609056 -4.04442673 61.71700941 -13.67578125 65.73828125 C-79.08829034 93.87222329 -144.3828324 137.97021117 -190.65234375 192.8125 C-192.54019532 195.0304931 -194.51530917 197.1582028 -196.48828125 199.30078125 C-201.0363089 204.34131951 -205.2052022 209.62456591 -209.359375 214.98828125 C-211.25604357 217.43359432 -213.183754 219.8472923 -215.1484375 222.23828125 C-223.13657724 231.98026967 -230.27710235 242.18016102 -237.23828125 252.67578125 C-237.71120605 253.38460449 -238.18413086 254.09342773 -238.67138672 254.82373047 C-269.64886963 301.3724295 -293.00510408 352.15802937 -307.54882812 406.15112305 C-310.75827443 417.93658252 -314.36304411 429.20770443 -325.32421875 435.9609375 C-333.97868971 440.44903675 -344.55842058 441.38761184 -354.04296875 438.95703125 C-356.24684832 438.01142202 -358.21136918 436.95416562 -360.23828125 435.67578125 C-360.85960937 435.32515625 -361.4809375 434.97453125 -362.12109375 434.61328125 C-369.06128812 430.28692632 -373.52454937 422.95384635 -375.71289062 415.16723633 C-377.54609847 406.47398073 -375.78091609 398.15402259 -373.48828125 389.73828125 C-373.18245117 388.59294922 -372.87662109 387.44761719 -372.56152344 386.26757812 C-363.21990838 352.24063244 -350.43264575 319.501815 -335.23828125 287.67578125 C-334.53300293 286.19730713 -334.53300293 286.19730713 -333.81347656 284.68896484 C-326.38027812 269.22116835 -318.10443398 254.36414853 -309.23828125 239.67578125 C-308.67963379 238.74572266 -308.12098633 237.81566406 -307.54541016 236.85742188 C-300.25841808 224.76165705 -292.55069095 213.08821559 -284.23828125 201.67578125 C-283.11451647 200.11593358 -281.99082058 198.55603628 -280.8671875 196.99609375 C-273.05376834 186.21114286 -264.83533968 175.84442636 -256.23828125 165.67578125 C-255.71492188 165.0533252 -255.1915625 164.43086914 -254.65234375 163.78955078 C-244.67682973 151.93729824 -234.28967481 140.53626782 -223.23828125 129.67578125 C-220.17873978 126.62708922 -217.13477307 123.56323021 -214.09375 120.49609375 C-212.53782226 118.9309281 -210.98183105 117.36582555 -209.42578125 115.80078125 C-208.65685547 115.02347656 -207.88792969 114.24617188 -207.09570312 113.4453125 C-202.30974963 108.63916511 -197.39328083 104.08156677 -192.23828125 99.67578125 C-191.15521075 98.72644476 -190.07312802 97.77597979 -188.9921875 96.82421875 C-180.79962229 89.67976192 -172.30749616 83.01031216 -163.61694336 76.48413086 C-161.85925371 75.14786819 -160.11456201 73.79446855 -158.37719727 72.43188477 C-149.95082502 65.82687357 -141.22511358 59.77390297 -132.30078125 53.86328125 C-131.21771194 53.14386353 -131.21771194 53.14386353 -130.11276245 52.40991211 C-118.05590437 44.41129376 -105.87495651 36.73286095 -93.23828125 29.67578125 C-92.25972168 29.1255127 -91.28116211 28.57524414 -90.27294922 28.00830078 C-77.56915745 20.9012984 -64.66213576 14.29665258 -51.48828125 8.11328125 C-50.87460693 7.82341339 -50.26093262 7.53354553 -49.62866211 7.2348938 C-17.06687428 -8.08910597 -17.06687428 -8.08910597 0 0 Z " fill="#000000" transform="translate(431.23828125,86.32421875)"/>
<path d="M0 0 C18.85121044 15.25953741 30.48550662 35.50300294 36.54858398 58.7734375 C36.91790039 60.17335938 36.91790039 60.17335938 37.29467773 61.6015625 C42.82436284 87.6864219 37.23562987 116.76110943 23.3034668 139.33862305 C7.60681814 163.37533751 -16.50986369 180.48640582 -44.58496094 186.62890625 C-72.96780444 192.4651839 -101.70577712 187.03982729 -126.10766602 171.4921875 C-138.2024613 163.42954352 -148.8084618 153.17630751 -156.45141602 140.7734375 C-157.0327832 139.87496094 -157.61415039 138.97648438 -158.21313477 138.05078125 C-172.83765971 114.48023454 -176.81694012 85.63848127 -170.99487305 58.65771484 C-164.59696972 31.94139806 -148.31451503 7.94471254 -125.0690918 -6.93115234 C-85.63126456 -31.03147871 -36.33668637 -28.58002443 0 0 Z " fill="#00FFAA" transform="translate(592.451416015625,870.2265625)"/>
<path d="M0 0 C62.36593162 44.09930694 101.43364458 153.92447716 133.3828125 281.94140625 C139.50408263 318.88124362 142.29320415 356.18424179 141.625 393.625 C141.60614746 394.73367432 141.60614746 394.73367432 141.58691406 395.86474609 C141.31100865 407.5231575 138.97713047 416.05919866 130.84765625 424.64453125 C122.06432981 432.47079928 112.86467387 433.32602447 101.56494141 432.79541016 C92.9869176 432.04189133 86.12761661 426.9850263 80.625 420.625 C76.93647833 414.76209921 74.52595496 409.11412991 74.46728516 402.15234375 C74.45688202 401.26644058 74.44647888 400.38053741 74.4357605 399.4677887 C74.42501999 398.02967079 74.42501999 398.02967079 74.4140625 396.5625 C74.38844839 394.48298212 74.36204845 392.40347381 74.33496094 390.32397461 C74.32170776 389.23132294 74.30845459 388.13867126 74.2947998 387.01290894 C73.22997276 306.48717675 57.83354727 228.34848642 -40.375 55.5625 C-48.80887608 45.43242537 -53.53788942 36.02591617 -52.375 22.625 C-50.71982639 13.19468312 -45.83881952 5.91092751 -38.40625 -0.0546875 C-26.23732218 -7.96449058 -12.18943881 -7.16264369 0 0 Z " fill="#000000" transform="translate(1075.375,248.375)"/>
</svg>
